<svg version="1.1" id="Layer_1" xmlns="http://www.w3.org/2000/svg" xmlns:xlink="http://www.w3.org/1999/xlink" x="0px" y="0px" width="58px" height="58px" viewBox="0 0 595.275 595.275" enable-background="new 0 0 595.275 595.275" xml:space="preserve"><circle id="color_x5F_2" fill="#72CAC3" cx="506.57" cy="87.546" r="82.143"></circle><path id="color_x5F_1" fill="#4E677D" d="M421.562,223.671c-35.021,22.841-93.447,62.819-151.876,111.126    c-5.338,4.413-12.55-2.54-8.33-8.033c41.08-53.481,84.161-115.081,109.557-152.057c14.708-21.414,22.578-46.732,22.578-72.709    V60.206c0-21.936-17.78-39.716-39.716-39.716H228.732c-21.935,0-39.716,17.78-39.716,39.716v142.737H46.277    c-21.934,0-39.714,17.782-39.714,39.715v125.044c0,21.936,17.78,39.715,39.714,39.715h142.739v142.739    c0,21.934,17.781,39.716,39.716,39.716h125.042c21.936,0,39.716-17.782,39.716-39.716V407.417h142.739    c21.934,0,39.716-17.779,39.716-39.715V242.658c0-21.934-17.782-39.715-39.716-39.715h-44.722    C466.652,202.943,442.382,210.093,421.562,223.671z"></path></svg>